<svg width="60" height="60" viewBox="0 0 60 60" fill="none" xmlns="http://www.w3.org/2000/svg">
<path d="M30.0001 0.587891C21.4609 0.587891 14.5314 7.53511 14.5314 16.0742V45.2227C14.5292 45.3146 14.5452 45.4061 14.5785 45.4918C14.6118 45.5776 14.6617 45.6559 14.7254 45.7222C14.7891 45.7885 14.8654 45.8416 14.9497 45.8784C15.034 45.9152 15.1247 45.9349 15.2167 45.9365H29.297V50.9259C28.2398 51.1023 27.2876 51.6697 26.6293 52.5156C25.971 53.3614 25.6546 54.4238 25.7431 55.492C25.8316 56.5601 26.3185 57.556 27.107 58.2819C27.8956 59.0079 28.9283 59.4108 30.0001 59.4108C31.0719 59.4108 32.1047 59.0079 32.8933 58.2819C33.6819 57.556 34.1687 56.5601 34.2572 55.492C34.3457 54.4238 34.0294 53.3614 33.371 52.5156C32.7127 51.6697 31.7606 51.1023 30.7033 50.9259V45.9365H44.7838C44.8757 45.9349 44.9664 45.9152 45.0506 45.8784C45.1349 45.8416 45.2112 45.7885 45.2749 45.7222C45.3386 45.6559 45.3885 45.5776 45.4218 45.4918C45.4551 45.4061 45.4712 45.3146 45.469 45.2227V16.0742C45.469 7.53511 38.5398 0.587891 30.0001 0.587891ZM32.8659 55.1386C32.8659 55.7053 32.6978 56.2593 32.383 56.7305C32.0681 57.2017 31.6206 57.5689 31.0971 57.7858C30.5735 58.0026 29.9974 58.0594 29.4416 57.9488C28.8858 57.8383 28.3753 57.5654 27.9745 57.1647C27.5738 56.764 27.3008 56.2535 27.1902 55.6977C27.0796 55.1419 27.1364 54.5658 27.3532 54.0422C27.5701 53.5186 27.9372 53.0711 28.4083 52.7562C28.8795 52.4414 29.4334 52.2732 30.0001 52.2732C30.7598 52.274 31.4882 52.5762 32.0254 53.1134C32.5625 53.6505 32.865 54.379 32.8659 55.1386ZM15.9377 44.5302V39.6084H44.0627V44.5302H15.9377ZM44.0627 38.2021H15.9377V16.0742C15.9377 8.31043 22.236 1.99414 30.0001 1.99414C37.7643 1.99414 44.0627 8.31054 44.0627 16.0742V38.2021Z" fill="#C0A172"/>
<path d="M29.9977 6.8418C28.0373 6.84182 26.121 7.42316 24.491 8.5123C22.861 9.60144 21.5906 11.1495 20.8404 12.9606C20.0902 14.7718 19.894 16.7647 20.2764 18.6874C20.6589 20.6101 21.6029 22.3762 22.9891 23.7624C24.3753 25.1486 26.1414 26.0926 28.0641 26.475C29.9868 26.8575 31.9798 26.6612 33.7909 25.911C35.6021 25.1608 37.1501 23.8903 38.2392 22.2603C39.3283 20.6304 39.9096 18.714 39.9096 16.7536C39.9066 14.1258 38.8614 11.6064 37.0032 9.74819C35.145 7.89001 32.6256 6.84477 29.9977 6.8418ZM36.8336 17.4607H38.472C38.3154 19.2224 37.6217 20.8936 36.4846 22.2482L35.3287 21.0912C35.264 21.0231 35.1865 20.9687 35.1005 20.9311C35.0145 20.8935 34.9218 20.8735 34.828 20.8722C34.7342 20.871 34.641 20.8886 34.5541 20.9239C34.4671 20.9592 34.3881 21.0116 34.3217 21.0779C34.2553 21.1442 34.2029 21.2232 34.1675 21.3101C34.1321 21.397 34.1145 21.4902 34.1156 21.584C34.1168 21.6778 34.1367 21.7705 34.1743 21.8565C34.2118 21.9425 34.2662 22.0202 34.3342 22.0848L35.4903 23.2408C34.1409 24.3878 32.4658 25.0827 30.7008 25.2279V23.5896C30.7008 23.4032 30.6267 23.2243 30.4949 23.0925C30.363 22.9606 30.1842 22.8865 29.9977 22.8865C29.8112 22.8865 29.6324 22.9606 29.5005 23.0925C29.3686 23.2243 29.2946 23.4032 29.2946 23.5896V25.2279C27.5295 25.0827 25.8545 24.3877 24.5051 23.2407L25.6617 22.0846C25.727 22.0193 25.7788 21.9418 25.8142 21.8565C25.8495 21.7712 25.8677 21.6797 25.8677 21.5874C25.8677 21.495 25.8495 21.4036 25.8142 21.3183C25.7788 21.233 25.727 21.1555 25.6617 21.0902C25.5964 21.0249 25.5189 20.9731 25.4336 20.9377C25.3483 20.9024 25.2569 20.8842 25.1645 20.8842C25.0722 20.8842 24.9807 20.9024 24.8954 20.9377C24.8101 20.9731 24.7326 21.0249 24.6673 21.0902L23.5114 22.2482C22.374 20.8936 21.6801 19.2225 21.5234 17.4607H23.1618C23.3483 17.4607 23.5271 17.3867 23.659 17.2548C23.7908 17.1229 23.8649 16.9441 23.8649 16.7576C23.8649 16.5711 23.7908 16.3923 23.659 16.2604C23.5271 16.1286 23.3483 16.0545 23.1618 16.0545H21.5234C21.6576 14.2862 22.354 12.6072 23.5108 11.263L24.6667 12.418C24.7987 12.55 24.9776 12.6241 25.1643 12.6241C25.3509 12.6241 25.5299 12.55 25.6618 12.418C25.7938 12.286 25.8679 12.107 25.8679 11.9204C25.8679 11.7338 25.7937 11.5548 25.6617 11.4229L24.5057 10.2667C25.8549 9.11978 27.5297 8.42476 29.2946 8.27945V9.91773C29.2946 10.1042 29.3686 10.2831 29.5005 10.4149C29.6324 10.5468 29.8112 10.6209 29.9977 10.6209C30.1842 10.6209 30.363 10.5468 30.4949 10.4149C30.6267 10.2831 30.7008 10.1042 30.7008 9.91773V8.27945C32.4659 8.42458 34.1409 9.11962 35.4903 10.2667L34.3342 11.4228C34.2023 11.5546 34.1283 11.7335 34.1283 11.92C34.1283 12.1065 34.2024 12.2853 34.3343 12.4172C34.4661 12.549 34.645 12.6231 34.8315 12.6231C35.018 12.6231 35.1968 12.549 35.3287 12.4171L36.4846 11.263C37.6414 12.6072 38.3378 14.2862 38.472 16.0545H36.8336C36.6471 16.0545 36.4683 16.1286 36.3364 16.2604C36.2045 16.3923 36.1305 16.5711 36.1305 16.7576C36.1305 16.9441 36.2045 17.1229 36.3364 17.2548C36.4683 17.3867 36.6471 17.4607 36.8336 17.4607Z" fill="#C0A172"/>
<path d="M30.7031 16.3846V12.7422C30.7031 12.5557 30.629 12.3769 30.4972 12.245C30.3653 12.1131 30.1865 12.0391 30 12.0391C29.8135 12.0391 29.6347 12.1131 29.5028 12.245C29.371 12.3769 29.2969 12.5557 29.2969 12.7422V16.6402C29.2968 16.8054 29.3549 16.9653 29.4609 17.0919L32.3987 20.5947C32.4578 20.6663 32.5304 20.7256 32.6125 20.769C32.6945 20.8124 32.7844 20.8392 32.8769 20.8477C32.9693 20.8562 33.0625 20.8463 33.1512 20.8186C33.2398 20.7909 33.322 20.7459 33.3932 20.6863C33.4643 20.6266 33.5229 20.5534 33.5656 20.471C33.6084 20.3886 33.6343 20.2985 33.642 20.2059C33.6498 20.1134 33.6391 20.0203 33.6106 19.9319C33.5821 19.8435 33.5364 19.7617 33.4761 19.691L30.7031 16.3846Z" fill="#C0A172"/>
<path d="M29.9996 4.33984C27.5444 4.33984 25.1443 5.06789 23.1029 6.43192C21.0615 7.79596 19.4704 9.73471 18.5308 12.003C17.5913 14.2713 17.3455 16.7673 17.8244 19.1753C18.3034 21.5833 19.4857 23.7952 21.2218 25.5313C22.9579 27.2674 25.1698 28.4497 27.5778 28.9287C29.9858 29.4076 32.4818 29.1618 34.7501 28.2222C37.0184 27.2827 38.9571 25.6916 40.3212 23.6502C41.6852 21.6088 42.4133 19.2087 42.4133 16.7535C42.4095 13.4623 41.1005 10.307 38.7733 7.97983C36.4461 5.65262 33.2908 4.34356 29.9996 4.33984ZM29.9996 27.7609C27.8225 27.7609 25.6943 27.1154 23.8842 25.9058C22.074 24.6963 20.6632 22.9772 19.8301 20.9659C18.9969 18.9545 18.7789 16.7413 19.2037 14.6061C19.6284 12.4708 20.6767 10.5095 22.2162 8.97009C23.7556 7.43068 25.7169 6.38232 27.8521 5.9576C29.9874 5.53287 32.2006 5.75086 34.2119 6.58398C36.2233 7.41711 37.9424 8.82796 39.1519 10.6381C40.3614 12.4483 41.007 14.5764 41.007 16.7535C41.0038 19.6719 39.8431 22.4699 37.7795 24.5336C35.7159 26.5972 32.918 27.7576 29.9996 27.7609Z" fill="#C0A172"/>
</svg>
