<svg width="60" height="60" viewBox="0 0 60 60" fill="none" xmlns="http://www.w3.org/2000/svg">
<path d="M54.8149 22.5004H53.7755C54.623 21.5629 55.1466 20.439 55.1466 19.133C55.1496 18.4991 55.0273 17.8709 54.7867 17.2844C54.5462 16.6979 54.1921 16.1647 53.7449 15.7154C53.2976 15.2662 52.766 14.9097 52.1806 14.6666C51.5952 14.4234 50.9675 14.2983 50.3336 14.2984C49.6997 14.2985 49.0721 14.4239 48.4868 14.6674C47.9015 14.9108 47.37 15.2675 46.923 15.7169C46.4759 16.1664 46.1221 16.6997 45.8818 17.2863C45.6415 17.8729 45.5195 18.5012 45.5228 19.1351C45.5228 20.4411 46.0465 21.5629 46.8939 22.5004H45.8544C45.6661 22.4956 45.4834 22.5648 45.3456 22.6932C45.2077 22.8216 45.1257 22.9989 45.1172 23.1871V25.5543C45.1251 25.7436 45.2066 25.9223 45.3444 26.0523C45.4821 26.1823 45.6652 26.2534 45.8546 26.2504H49.6875V26.8789C49.6875 32.0972 45.4137 36.3426 40.1953 36.3426C34.977 36.3426 30.7031 32.0972 30.7031 26.8789V20.391H34.4801C34.5706 20.3914 34.6603 20.3734 34.7437 20.3384C34.8272 20.3033 34.9027 20.2517 34.9658 20.1868C35.0289 20.1219 35.0783 20.045 35.111 19.9606C35.1438 19.8761 35.1591 19.786 35.1562 19.6955V17.3283C35.159 17.2383 35.1434 17.1487 35.1105 17.0648C35.0776 16.981 35.0281 16.9047 34.9649 16.8405C34.9017 16.7763 34.8262 16.7256 34.7428 16.6914C34.6595 16.6573 34.5701 16.6403 34.4801 16.6416H33.4407C34.2882 15.7041 34.7926 14.5802 34.7926 13.2742C34.7949 12.122 34.3833 11.0072 33.6327 10.1329C32.8821 9.25865 31.8425 8.68304 30.7031 8.5109V1.86133C30.7031 1.67485 30.629 1.49601 30.4972 1.36415C30.3653 1.23228 30.1865 1.1582 30 1.1582C29.8135 1.1582 29.6347 1.23228 29.5028 1.36415C29.371 1.49601 29.2969 1.67485 29.2969 1.86133V8.50059C28.1487 8.66425 27.0985 9.23755 26.3398 10.1148C25.5811 10.992 25.1653 12.1139 25.1688 13.2736C25.1688 14.5796 25.7118 15.7035 26.5593 16.641H25.5199C25.4299 16.6397 25.3405 16.6567 25.2572 16.6909C25.1738 16.725 25.0983 16.7757 25.0351 16.8399C24.9719 16.9041 24.9224 16.9804 24.8895 17.0642C24.8566 17.1481 24.841 17.2377 24.8438 17.3277V19.6949C24.8408 19.7855 24.8561 19.8757 24.8888 19.9602C24.9215 20.0446 24.9708 20.1217 25.0339 20.1866C25.0971 20.2516 25.1726 20.3032 25.2561 20.3383C25.3396 20.3734 25.4293 20.3914 25.5199 20.391H29.2969V26.8789C29.2969 32.0972 25.023 36.3426 19.8047 36.3426C14.5863 36.3426 10.3125 32.0972 10.3125 26.8789V26.2504H14.1454C14.3347 26.2534 14.5177 26.1824 14.6554 26.0525C14.7932 25.9226 14.8747 25.7441 14.8828 25.5549V23.1877C14.8743 22.9995 14.7923 22.8221 14.6544 22.6937C14.5165 22.5653 14.3337 22.4961 14.1454 22.501H13.1059C13.9534 21.5635 14.477 20.4395 14.477 19.1336C14.48 18.4997 14.3577 17.8715 14.1171 17.285C13.8766 16.6985 13.5225 16.1653 13.0753 15.716C12.6281 15.2668 12.0965 14.9103 11.5111 14.6671C10.9256 14.424 10.2979 14.2988 9.66404 14.299C9.03013 14.2991 8.40249 14.4245 7.81719 14.6679C7.23188 14.9114 6.70044 15.2681 6.25341 15.7175C5.80637 16.167 5.45255 16.7003 5.21226 17.2869C4.97197 17.8735 4.84994 18.5018 4.8532 19.1357C4.8532 20.4417 5.37691 21.5635 6.2243 22.501H5.18484C4.99723 22.4964 4.81533 22.5658 4.67843 22.6942C4.54153 22.8225 4.46062 22.9996 4.45312 23.1871V25.5543C4.45986 25.743 4.54024 25.9216 4.67707 26.0517C4.8139 26.1818 4.99627 26.2532 5.18508 26.2504H8.90625V26.8789C8.90625 32.8726 13.811 37.7488 19.8047 37.7488C21.734 37.7471 23.6284 37.2347 25.2956 36.2638C26.9628 35.2929 28.3433 33.898 29.2969 32.2209V47.9726C29.2969 53.191 25.023 57.4363 19.8047 57.4363C14.5863 57.4363 10.3125 53.191 10.3125 47.9726V47.3442H14.1454C14.3347 47.3472 14.5177 47.2762 14.6554 47.1463C14.7932 47.0164 14.8747 46.8378 14.8828 46.6486V44.2815C14.8743 44.0932 14.7923 43.9159 14.6544 43.7874C14.5165 43.659 14.3337 43.5899 14.1454 43.5947H13.1059C13.9534 42.6572 14.477 41.5333 14.477 40.2274C14.48 39.5934 14.3577 38.9652 14.1171 38.3787C13.8766 37.7922 13.5225 37.259 13.0753 36.8098C12.6281 36.3605 12.0965 36.0041 11.5111 35.7609C10.9256 35.5177 10.2979 35.3926 9.66404 35.3927C9.03013 35.3929 8.40249 35.5183 7.81719 35.7617C7.23188 36.0051 6.70044 36.3618 6.25341 36.8113C5.80637 37.2607 5.45255 37.7941 5.21226 38.3807C4.97197 38.9673 4.84994 39.5956 4.8532 40.2295C4.8532 41.5354 5.37691 42.6572 6.2243 43.5947H5.18484C4.99723 43.5902 4.81533 43.6595 4.67843 43.7879C4.54153 43.9163 4.46062 44.0933 4.45312 44.2809V46.6481C4.45986 46.8368 4.54024 47.0153 4.67707 47.1455C4.8139 47.2756 4.99627 47.3469 5.18508 47.3442H8.90625V47.9726C8.90824 50.5265 9.80872 52.9983 11.45 54.9551C13.0912 56.9118 15.3686 58.2287 17.8832 58.6751C20.3978 59.1215 22.9893 58.6689 25.2038 57.3967C27.4183 56.1244 29.1145 54.1136 29.9954 51.7164C30.8773 54.1137 32.5744 56.1245 34.7894 57.3967C37.0045 58.6689 39.5964 59.1214 42.1115 58.6751C44.6266 58.2288 46.9046 56.9121 48.5468 54.9555C50.1889 52.9989 51.0905 50.527 51.0938 47.9726V47.3442H54.8149C55.0036 47.3469 55.1859 47.2757 55.3227 47.1457C55.4595 47.0157 55.54 46.8372 55.5469 46.6486V44.2815C55.5395 44.0938 55.4586 43.9165 55.3217 43.788C55.1847 43.6595 55.0027 43.5901 54.8149 43.5947H53.7755C54.623 42.6572 55.1466 41.5333 55.1466 40.2274C55.1496 39.5934 55.0273 38.9652 54.7867 38.3787C54.5462 37.7922 54.1921 37.259 53.7449 36.8098C53.2976 36.3605 52.766 36.0041 52.1806 35.7609C51.5952 35.5177 50.9675 35.3926 50.3336 35.3927C49.6997 35.3929 49.0721 35.5183 48.4868 35.7617C47.9015 36.0051 47.37 36.3618 46.923 36.8113C46.4759 37.2607 46.1221 37.7941 45.8818 38.3807C45.6415 38.9673 45.5195 39.5956 45.5228 40.2295C45.5228 41.5354 46.0465 42.6572 46.8939 43.5947H45.8544C45.6662 43.5899 45.4836 43.659 45.3457 43.7873C45.2079 43.9156 45.1259 44.0928 45.1172 44.2809V46.6481C45.1251 46.8373 45.2066 47.016 45.3444 47.146C45.4821 47.2761 45.6652 47.3472 45.8546 47.3442H49.6875V47.9726C49.6875 53.191 45.4137 57.4363 40.1953 57.4363C34.977 57.4363 30.7031 53.191 30.7031 47.9726V32.2209C31.6567 33.898 33.0372 35.2929 34.7044 36.2638C36.3716 37.2347 38.266 37.7471 40.1953 37.7488C46.189 37.7488 51.0938 32.8726 51.0938 26.8789V26.2504H54.8149C55.0036 26.2532 55.1859 26.1819 55.3227 26.0519C55.4595 25.9219 55.54 25.7435 55.5469 25.5549V23.1877C55.5397 22.9999 55.4589 22.8225 55.3219 22.6939C55.1849 22.5653 55.0028 22.4958 54.8149 22.5004ZM6.25957 19.133C6.25708 18.6841 6.34337 18.2391 6.51347 17.8237C6.68357 17.4082 6.93412 17.0305 7.25073 16.7122C7.56733 16.394 7.94373 16.1414 8.35828 15.9692C8.77283 15.7969 9.21735 15.7083 9.66628 15.7084C10.1152 15.7086 10.5597 15.7975 10.9741 15.97C11.3886 16.1425 11.7648 16.3953 12.0812 16.7137C12.3976 17.0322 12.6479 17.4101 12.8178 17.8256C12.9876 18.2412 13.0736 18.6862 13.0709 19.1351C13.0709 20.8226 11.8362 22.266 10.2232 22.5004H9.10771C7.49415 22.266 6.25957 20.821 6.25957 19.133ZM5.85938 23.9067H9.00517C9.22103 23.9067 9.44121 23.9535 9.66516 23.9535C9.8891 23.9535 10.1093 23.9067 10.3253 23.9067H13.4766V24.8442H5.85938V23.9067ZM6.25957 40.2268C6.25708 39.7779 6.34337 39.3329 6.51347 38.9174C6.68357 38.502 6.93412 38.1243 7.25073 37.806C7.56733 37.4877 7.94373 37.2352 8.35828 37.0629C8.77283 36.8906 9.21735 36.802 9.66628 36.8022C10.1152 36.8023 10.5597 36.8912 10.9741 37.0637C11.3886 37.2363 11.7648 37.489 12.0812 37.8075C12.3976 38.126 12.6479 38.5038 12.8178 38.9194C12.9876 39.3349 13.0736 39.78 13.0709 40.2289C13.0709 41.9164 11.8362 43.3598 10.2232 43.5942H9.10771C7.49415 43.3598 6.25957 41.9147 6.25957 40.2268ZM5.85938 45.0004H9.00517C9.22103 45.0004 9.44121 45.0473 9.66516 45.0473C9.8891 45.0473 10.1093 45.0004 10.3253 45.0004H13.4766V45.9379H5.85938V45.0004ZM46.9291 40.2268C46.9267 39.7779 47.0129 39.3329 47.183 38.9174C47.3531 38.502 47.6037 38.1243 47.9203 37.806C48.2369 37.4877 48.6133 37.2352 49.0279 37.0629C49.4424 36.8906 49.8869 36.802 50.3358 36.8022C50.7848 36.8023 51.2292 36.8912 51.6437 37.0637C52.0581 37.2363 52.4344 37.489 52.7508 37.8075C53.0672 38.126 53.3175 38.5038 53.4873 38.9194C53.6572 39.3349 53.7432 39.78 53.7404 40.2289C53.7404 41.9164 52.5057 43.3598 50.8928 43.5942H49.7777C48.1641 43.3598 46.9291 41.9147 46.9291 40.2268ZM46.5234 45.0004H49.6747C49.8906 45.0004 50.1108 45.0473 50.3347 45.0473C50.5587 45.0473 50.7789 45.0004 50.9948 45.0004H54.1406V45.9379H46.5234V45.0004ZM26.5943 13.2736C26.5944 12.8264 26.6827 12.3836 26.8539 11.9704C27.0252 11.5573 27.2762 11.1819 27.5925 10.8658C27.9089 10.5496 28.2844 10.2989 28.6977 10.1278C29.1109 9.9568 29.5538 9.86885 30.0011 9.86899C30.4483 9.86912 30.8911 9.95735 31.3043 10.1286C31.7174 10.2999 32.0928 10.5509 32.4089 10.8672C32.7251 11.1836 32.9758 11.5591 33.1469 11.9724C33.3179 12.3856 33.4058 12.8285 33.4057 13.2758C33.4057 14.9633 32.171 16.4067 30.558 16.641H29.4429C27.829 16.4067 26.5943 14.9616 26.5943 13.2736ZM26.25 18.0473H29.3399C29.5559 18.0473 29.7759 18.0942 30 18.0942C30.2241 18.0942 30.4441 18.0473 30.6601 18.0473H33.75V18.9848H26.25V18.0473ZM46.9291 19.133C46.9267 18.6841 47.0129 18.2391 47.183 17.8237C47.3531 17.4082 47.6037 17.0305 47.9203 16.7122C48.2369 16.394 48.6133 16.1414 49.0279 15.9692C49.4424 15.7969 49.8869 15.7083 50.3358 15.7084C50.7848 15.7086 51.2292 15.7975 51.6437 15.97C52.0581 16.1425 52.4344 16.3953 52.7508 16.7137C53.0672 17.0322 53.3175 17.4101 53.4873 17.8256C53.6572 18.2412 53.7432 18.6862 53.7404 19.1351C53.7404 20.8226 52.5057 22.266 50.8928 22.5004H49.7777C48.1641 22.266 46.9291 20.821 46.9291 19.133ZM54.1406 24.8442H46.5234V23.9067H49.6747C49.8906 23.9067 50.1108 23.9535 50.3347 23.9535C50.5587 23.9535 50.7789 23.9067 50.9948 23.9067H54.1406V24.8442Z" fill="#C0A172"/>
</svg>
