<svg width="60" height="60" viewBox="0 0 60 60" fill="none" xmlns="http://www.w3.org/2000/svg">
<path d="M22.3828 31.3133C22.5693 31.3133 22.7481 31.2393 22.88 31.1074C23.0119 30.9755 23.0859 30.7967 23.0859 30.6102V24.5215C23.0859 24.335 23.0119 24.1562 22.88 24.0243C22.7481 23.8925 22.5693 23.8184 22.3828 23.8184C22.1963 23.8184 22.0175 23.8925 21.8856 24.0243C21.7538 24.1562 21.6797 24.335 21.6797 24.5215V30.6102C21.6797 30.7967 21.7538 30.9755 21.8856 31.1074C22.0175 31.2393 22.1963 31.3133 22.3828 31.3133Z" fill="#C0A172"/>
<path d="M49.056 51.7971H46.0547V2.6644C46.0599 2.57652 46.0467 2.48853 46.0161 2.40601C45.9854 2.32348 45.938 2.24824 45.8767 2.18505C45.8154 2.12186 45.7416 2.0721 45.6601 2.03894C45.5786 2.00579 45.491 1.98995 45.403 1.99244H14.597C14.509 1.98995 14.4214 2.00579 14.3399 2.03894C14.2584 2.0721 14.1846 2.12186 14.1233 2.18505C14.062 2.24824 14.0146 2.32348 13.9839 2.40601C13.9533 2.48853 13.9401 2.57652 13.9453 2.6644V51.7971H10.944C10.5558 51.7971 10.1953 52.0773 10.1953 52.4651V57.3357C10.1953 57.7239 10.5558 58.0076 10.944 58.0076H49.056C49.4442 58.0076 49.8047 57.7239 49.8047 57.3357V52.4651C49.8047 52.0773 49.4442 51.7971 49.056 51.7971ZM15.3516 3.39869H44.6484V51.7971H41.25V7.53541C41.2482 7.34373 41.1726 7.1601 41.039 7.02263C40.9054 6.88516 40.724 6.80441 40.5325 6.79713H19.4675C19.276 6.80441 19.0946 6.88516 18.961 7.02263C18.8274 7.1601 18.7518 7.34373 18.75 7.53541V51.7971H15.3516V3.39869ZM39.8438 51.7971H20.1562V8.20338H39.8438V51.7971ZM48.3984 56.6018H11.6016V53.2034H48.3984V56.6018Z" fill="#C0A172"/>
</svg>
