<svg width="60" height="60" viewBox="0 0 60 60" fill="none" xmlns="http://www.w3.org/2000/svg">
<path d="M58.7995 10.5472H1.20047C1.0133 10.5413 0.831378 10.6096 0.694328 10.7372C0.557278 10.8649 0.4762 11.0415 0.46875 11.2286V15.5277C0.472963 15.7233 0.550526 15.9102 0.68606 16.0513C0.821594 16.1924 1.0052 16.2774 1.20047 16.2894H2.92969V48.7722C2.92916 48.8629 2.94686 48.9528 2.98174 49.0366C3.01663 49.1204 3.06799 49.1963 3.13277 49.2598C3.19755 49.3234 3.27443 49.3733 3.35886 49.4065C3.44329 49.4398 3.53354 49.4558 3.62426 49.4535H8.42508C8.5169 49.4562 8.60835 49.4406 8.69413 49.4077C8.77991 49.3749 8.85833 49.3253 8.92486 49.262C8.99139 49.1986 9.04471 49.1227 9.08175 49.0387C9.11878 48.9546 9.13879 48.864 9.14062 48.7722V16.2894H27.0703V25.4114C27.0721 25.6011 27.1478 25.7826 27.2813 25.9173C27.4148 26.0521 27.5955 26.1295 27.7852 26.1332H50.8594V48.7722C50.8612 48.864 50.8812 48.9546 50.9183 49.0387C50.9553 49.1227 51.0086 49.1986 51.0751 49.262C51.1417 49.3253 51.2201 49.3749 51.3059 49.4077C51.3917 49.4406 51.4831 49.4562 51.5749 49.4535H56.3757C56.4665 49.4558 56.5567 49.4398 56.6411 49.4065C56.7256 49.3733 56.8025 49.3234 56.8672 49.2598C56.932 49.1963 56.9834 49.1204 57.0183 49.0366C57.0531 48.9528 57.0708 48.8629 57.0703 48.7722V16.2894H58.7995C58.9948 16.2774 59.1784 16.1924 59.3139 16.0513C59.4495 15.9102 59.527 15.7233 59.5312 15.5277V11.2286C59.5238 11.0415 59.4427 10.8649 59.3057 10.7372C59.1686 10.6096 58.9867 10.5413 58.7995 10.5472ZM7.73438 48.0472H4.33594V16.2894H7.73438V48.0472ZM28.4766 24.7269V16.2894H50.8594V24.7269H28.4766ZM55.6641 48.0472H52.2656V16.2894H55.6641V48.0472ZM58.125 14.8832H1.875V11.9535H58.125V14.8832Z" fill="#C0A172"/>
<path d="M43.8281 19.5703H36.2109C36.0245 19.5703 35.8456 19.6444 35.7138 19.7763C35.5819 19.9081 35.5078 20.087 35.5078 20.2734C35.5078 20.4599 35.5819 20.6388 35.7138 20.7706C35.8456 20.9025 36.0245 20.9766 36.2109 20.9766H43.8281C44.0146 20.9766 44.1934 20.9025 44.3253 20.7706C44.4572 20.6388 44.5312 20.4599 44.5312 20.2734C44.5312 20.087 44.4572 19.9081 44.3253 19.7763C44.1934 19.6444 44.0146 19.5703 43.8281 19.5703Z" fill="#C0A172"/>
</svg>
